PathFileType	4	(X/Y/Z)	pose_F01_0-96.trc
DataRate	CameraRate	NumFrames	NumMarkers	Units	OrigDataRate	OrigDataStartFrame	OrigNumFrames
30	30	13	21	m	30	80	96
Frame#	Time	CHip			RHip			RKnee			RAnkle			RBigToe			RSmallToe			RHeel			LHip			LKnee			LAnkle			LBigToe			LSmallToe			LHeel			Neck			Nose			RShoulder			RElbow			RWrist			LShoulder			LElbow			LWrist			
		X1	Y1	Z1	X2	Y2	Z2	X3	Y3	Z3	X4	Y4	Z4	X5	Y5	Z5	X6	Y6	Z6	X7	Y7	Z7	X8	Y8	Z8	X9	Y9	Z9	X10	Y10	Z10	X11	Y11	Z11	X12	Y12	Z12	X13	Y13	Z13	X14	Y14	Z14	X15	Y15	Z15	X16	Y16	Z16	X17	Y17	Z17	X18	Y18	Z18	X19	Y19	Z19	X20	Y20	Z20	X21	Y21	Z21	
80	2.6666666666666665	-0.21312031059031622	1.8419128204527562	-0.6630145766379518	-0.2289703995958093	1.8398791700212274	-0.6001965527659633																-0.1978575968536772	1.8441656023265016	-0.7201603009587609	-0.2127913485320419	1.714862348381824	-0.7067918277899943													-0.20654500442509716	1.9960176310556768	-0.6777509783021823	-0.20267862786494484	2.0545304095884243	-0.6582592512206299	-0.2270273346694074	1.9893591965592956	-0.5934307947733926	-0.22971630382661107	1.9173785477555731	-0.5619113065518083	-0.21145396452306783	1.8759230441931647	-0.5285116228950754	-0.18397378317503515	1.999792405929248	-0.7613892082706484	-0.1766662738184991	1.95808669741702	-0.8799210041268245	-1.2224293461253053	1.8084753687923862	0.24327223347905863
81	2.7	-0.2133822425411382	1.8434348328004393	-0.6630848125241009	-0.2321075759808529	1.8414225727298639	-0.6011713589960469																-0.19816987247655682	1.8466155954674381	-0.7202367193659479	-0.21108011739383709	1.7143767819713525	-0.712755478836378													-0.20746618402008157	1.9959731201514552	-0.6807887985910652	-0.20259206736860372	2.0544343417366306	-0.6577346520569788	-0.22804595829393168	1.989099443787022	-0.5965746649891415	-0.2217817492752061	1.9184793113228908	-0.5727136558685337	-0.21145396452306783	1.8759230441931647	-0.5285116228950754	-0.1847067362326383	2.000627205309219	-0.7642985058767285	-0.18101510605382243	1.960947030399784	-0.8755230135000672	-1.1997071987269123	1.806605607527487	0.20934685415968293
82	2.7333333333333334	-0.21434058919337945	1.8426506925568327	-0.6660918941146948	-0.23111168971970858	1.8400237013070884	-0.6064634390886692																-0.19888073448360669	1.8463758733941824	-0.7234138833684514	-0.211245405226684	1.7156614628547646	-0.7125877871529956													-0.20830167891958204	1.9959800291445746	-0.6839271648808987	-0.20347662793549023	2.0544841266743665	-0.6607154589345823	-0.22893546872375273	1.9904182602981342	-0.6001055996163143	-0.2200501815995277	1.9193654089519645	-0.5751719613112312	-0.21145396452306783	1.8759230441931647	-0.5285116228950754	-0.18558387042899743	2.000445454948325	-0.7674132191081966	-0.18103988015649672	1.9611044047112036	-0.8753436826251233	-1.1540822456149193	1.7929841934931514	0.14062746315776392
83	2.7666666666666666	-0.21528407336441915	1.8434332449221058	-0.6692647195377717	-0.23210213624698203	1.8402432762747918	-0.6096368914122808																-0.19994367416340458	1.8456542268765004	-0.7264717946163448	-0.21126891340788145	1.715842138350921	-0.7126774971203917													-0.20915281969222677	1.996039008738195	-0.6870840019032715	-0.20363624397297078	2.0532476605004972	-0.6608862128754734	-0.22899779663889985	1.9903561000733112	-0.6003414170340291	-0.22717345729654131	1.9206429631745296	-0.5718929608898758	-0.21145396452306783	1.8759230441931647	-0.5285116228950754	-0.18623887339515552	1.9998035169863992	-0.770277615339763	-0.1790631276313907	1.955997154920479	-0.8684019400509168	-1.1043691083565825	1.7839373611299927	0.07343006316239524
84	2.8	-0.21330183112631365	1.8446884770709882	-0.6715334317376265	-0.231893655763258	1.8414327260506704	-0.6099024950995219																-0.19753933983950056	1.846587986811619	-0.728810399953503	-0.212118087883584	1.715641696565239	-0.7157477153107727													-0.20702406752967528	1.9962273253095095	-0.6894071442735673	-0.20441134530734573	2.0544562062549288	-0.6637669108695511	-0.22979997715228892	1.9893585486081795	-0.6029415267115433	-0.22923262655873194	1.9223956961803774	-0.5700193589724286	-0.21145396452306783	1.8759230441931647	-0.5285116228950754	-0.18263018427197042	1.9990335831491142	-0.777806493020117	-1.1378520351414583	1.835783952455523	0.08922232150239151	-1.0546559710982457	1.774890528766834	0.006232663167026559
85	2.8333333333333335	-0.2155959741387658	1.8423389277107585	-0.6691296263937538	-0.23425228687380986	1.840659432043314	-0.6075938204290853																-0.2008704242881109	1.846129829931426	-0.729429598978484	-0.21198149263258478	1.711693160624911	-0.7157891188574639													-0.20797426764075075	1.9940361225762	-0.6919399438483114	-0.20752300802437934	2.053294699143827	-0.6647376980205044	-0.2299029083613597	1.9893208371996332	-0.6029376267195545	-0.2302615019189923	1.9179678696988878	-0.5724848863216528	-0.21145396452306783	1.8759230441931647	-0.5285116228950754	-0.18487030291394096	1.9986973591032278	-0.7756072410267472	-1.1693113177303498	1.8198388730193111	0.15146760083491984	-1.004942833839909	1.7658436964036752	-0.060964736828342136
86	2.8666666666666667	-0.21539910749378174	1.8401690812490676	-0.669118890149412	-0.23202052967119483	1.838377213004947	-0.6097163093787283																-0.20059107520133457	1.8425992929673711	-0.7292876650152923	-0.21190510757708841	1.7137378832631192	-0.7159793529477574													-0.20799348742986348	1.9941123489501922	-0.6920882563572748	-0.2077535223425806	2.0510616370738757	-0.6650965491437875	-0.23085463386176025	1.9908132296836312	-0.6063648686695455	-0.23335978441961208	1.9177073705393168	-0.5735233247733792	-0.21145396452306783	1.8759230441931647	-0.5285116228950754	-0.18557641126495739	1.9977195554255822	-0.7783299487419062	-1.2036409694954109	1.8162776338469362	0.21491072827107643	-0.9552296965815721	1.7567968640405165	-0.1281621368237108
87	2.9	-0.21522204051350877	1.8414262836188062	-0.6691976196307923	-0.23409130768519515	1.8384354955601092	-0.6074527661884768																-0.19971986544072595	1.8423319054372758	-0.7262481482227431	-0.2122021112400215	1.7127994794834254	-0.7156147174654198													-0.21005543523085077	1.9940302064061874	-0.6900207119529013	-0.21082571734130945	2.050026272583615	-0.6659697105046227	-0.23303893519547952	1.9897177846077299	-0.6042357157934368	-0.2342930115113396	1.9172036414805191	-0.5766359040405674	-0.21145396452306783	1.8759230441931647	-0.5285116228950754	-0.18355008703545483	1.996569663517201	-0.7806047153376536	-1.2220081759167691	1.8189654979105296	0.2459696337328215	-0.9055165593232353	1.7477500316773578	-0.19535953681907947
88	2.933333333333333	-0.215697899109305	1.8416195711090284	-0.6707695889860996	-0.23447341491355014	1.8392155394221907	-0.609110710322649																-0.2001599985112451	1.83884932018892	-0.7289268363611728	-0.21484689086967107	1.710400883124905	-0.7167216139218545													-0.2080822682302757	1.991717869221294	-0.6918020297353209	-0.2107810398418165	2.0499672699756633	-0.6661124604230235	-0.23094652270551527	1.9884314817592248	-0.6059608346023564	-0.23522623860306713	1.9166999124217217	-0.5797484833077556	-0.21145396452306783	1.8759230441931647	-0.5285116228950754	-0.18582397193920008	1.9940744378563304	-0.7781882007970586	-1.2111619520899626	1.8134567516952957	0.23284901937964567	-0.8558034220648985	1.738703199314199	-0.2625569368144482
89	2.966666666666667	-0.21617375770510125	1.8418128585992506	-0.6723415583414071	-0.23485552214190514	1.8399955832842725	-0.6107686544568212																-0.20356546543573095	1.8458479965535648	-0.7304501713505017	-0.21435561069235218	1.7129662349005697	-0.713467752643002													-0.21095496407914066	1.9943094517426692	-0.6929150857348559	-0.20756770035907143	2.0491718182591177	-0.6741297627308507	-0.23497547370745223	1.9892934239972158	-0.6016852867469991	-0.23615946569479465	1.916196183362924	-0.5828610625749439	-0.21145396452306783	1.8759230441931647	-0.5285116228950754	-0.18652653466339944	1.995665356340663	-0.7810498435234722	-1.2125106622119122	1.8191429244203212	0.2312712787383404	-0.8060902848065616	1.7296563669510403	-0.32975433680981686
90	3.0	-0.21620539869794883	1.8422560047639687	-0.6723147721484892	-0.2348902025841196	1.8403050758360118	-0.6107317814551017																-0.20264758999760074	1.8451347316047826	-0.7273578588340185	-0.21407562073502942	1.713908644867618	-0.713894839315807													-0.2109738764720147	1.9943112763943625	-0.6929820036497119	-0.20543360592517823	2.0492089601788996	-0.6764046456335625	-0.23391994538622088	1.9909014320234397	-0.6073985185017254	-0.23775181610246027	1.9157539429636494	-0.5791125511156636	-0.21145396452306783	1.8759230441931647	-0.5285116228950754	-0.1858568033781874	1.9969183434179851	-0.7783069779371807	-1.2185187033299474	1.8212741135317874	0.2430445181103359	-0.7563771475482248	1.7206095345878816	-0.39695173680518553
91	3.033333333333333	-0.21851718259946779	1.8404092109202503	-0.669823745345845	-0.2362890930854899	1.8387639455054958	-0.605219425191638																-0.20285297160824872	1.8431035884062084	-0.7270689573850387	-0.2143435344744442	1.7122644216906722	-0.7133124176710716													-0.21315070306297199	1.9940152659540793	-0.690772676078962	-0.2052969169937317	2.0503802525589436	-0.67640786953464	-0.236020217001544	1.9893788210543206	-0.6046864560975563	-0.23934416651012586	1.9153117025643749	-0.5753640396563835	-0.21145396452306783	1.8759230441931647	-0.5285116228950754	-0.18885148637848284	1.9969927387320303	-0.7790389555432762	-1.2198816771422691	1.81585971515487	0.24756974951346167	-0.706664010289888	1.7115627022247228	-0.4641491368005542
92	3.066666666666667	-0.21944404319094304	1.8400533554294487	-0.6644951312851171	-0.2362459291916784	1.8383945306336011	-0.604920095772822																-0.2027871913040377	1.8424264074811245	-0.7267816795059828	-0.21613110574514344	1.7124482873053992	-0.7117334208083005													-0.21538845588288352	1.995100452775648	-0.6888431119683586	-0.20525721796260163	2.0504133729684413	-0.676436507181034	-0.23911272482029386	1.992035336719633	-0.6063732516613314	-0.23928208027935244	1.9141453062078122	-0.5749931379362598	-0.21145396452306783	1.8759230441931647	-0.5285116228950754	-0.19029858800316152	1.9967968125568967	-0.7737784249522637	-1.2298221238354046	1.8140035315677432	0.2671345505137341	-0.6569508730315512	1.7025158698615641	-0.5313465367959229
